<svg viewBox="0 0 1024 1024" xmlns="http://www.w3.org/2000/svg"><path d="m880 112h-736c-17.7 0-32 14.3-32 32v736c0 17.7 14.3 32 32 32h736c17.7 0 32-14.3 32-32v-736c0-17.7-14.3-32-32-32zm-40 728h-656v-656h656zm-348-440h184c4.4 0 8-3.6 8-8v-48c0-4.4-3.6-8-8-8h-184c-4.4 0-8 3.6-8 8v48c0 4.4 3.6 8 8 8zm0 144h184c4.4 0 8-3.6 8-8v-48c0-4.4-3.6-8-8-8h-184c-4.4 0-8 3.6-8 8v48c0 4.4 3.6 8 8 8zm0 144h184c4.4 0 8-3.6 8-8v-48c0-4.4-3.6-8-8-8h-184c-4.4 0-8 3.6-8 8v48c0 4.4 3.6 8 8 8zm-152-320a40 40 0 1 0 80 0 40 40 0 1 0 -80 0zm0 144a40 40 0 1 0 80 0 40 40 0 1 0 -80 0zm0 144a40 40 0 1 0 80 0 40 40 0 1 0 -80 0z"/></svg>